<svg width="1454" height="393" viewBox="0 0 1454 393" fill="none" xmlns="http://www.w3.org/2000/svg">
<path d="M941.358 6.40986C957.859 4.29344 974.073 5.15001 989.454 8.56824C1012.93 13.7854 1041.26 3.82916 1065.07 0.46807L1065.68 0.386904C1091.21 -2.88706 1114.69 14.9691 1118.3 40.5283L1118.38 41.1313C1119.59 50.5685 1117.92 59.7262 1114.03 67.7038C1105.47 85.2641 1094.91 106.274 1097.64 125.616L1097.88 127.408C1098.78 134.437 1099.14 141.415 1098.99 148.298C1098.97 149.416 1099.99 150.272 1101.09 150.115L1101.95 150.006C1110.87 148.976 1119.41 151.588 1126.05 156.69C1126.05 156.692 1126.06 156.689 1126.05 156.685L1125.92 155.743C1120.22 115.41 1148.3 78.0994 1188.64 72.4063L1189.58 72.2789C1229.55 67.153 1266.32 95.1093 1271.97 135.126L1272.1 136.071C1272.35 138.023 1272.52 139.967 1272.61 141.9C1272.62 142.083 1272.79 142.218 1272.97 142.193L1273.6 142.107C1278.27 141.508 1282.88 141.584 1287.32 142.258C1291.88 142.949 1296.5 138.717 1295.86 134.157C1289.76 90.9626 1319.84 51.0044 1363.03 44.907C1406.23 38.81 1446.18 68.8831 1452.28 112.077L1452.42 113.09C1457.91 155.895 1427.97 195.279 1385.11 201.328L1384.1 201.464C1360.88 204.441 1323.04 224.893 1302.13 235.41C1297.44 237.769 1292.29 239.416 1286.8 240.191L1286.17 240.277C1272.92 241.976 1260.19 238.256 1250.25 230.819C1238.94 222.361 1223.23 216.489 1209.25 218.462L1208.31 218.59C1195.52 220.23 1183.05 218.483 1171.83 214.036C1157.46 208.34 1125.71 213.915 1110.41 216.076L1109.55 216.185C1095.64 217.791 1077.83 220.479 1069.19 231.5C1047.67 258.943 1015.93 278.427 978.671 283.686L976.879 283.927C950.903 287.259 925.639 283.223 903.217 273.424C879.469 263.045 846.321 268.515 820.659 272.138L819.922 272.237C800.195 274.767 781.465 266.975 769.242 253.006C769.092 252.834 768.866 252.753 768.64 252.785L767.617 252.917C746.496 255.354 727.138 240.785 723.634 219.814L723.477 218.795C722.884 214.594 717.905 211.48 714.036 213.222C707.585 216.125 700.62 218.177 693.263 219.215L692.281 219.347C668.762 222.364 646.308 214.351 630.193 199.279C627.749 196.994 623.625 197.601 621.611 200.274C619.542 203.019 620.172 207.316 623.18 208.98C644.653 220.856 660.484 242.322 664.178 268.491L664.317 269.527C669.94 313.364 639.278 353.697 595.388 359.892L594.353 360.032C555.312 365.039 504.86 366.162 466.988 376.884C461.73 378.373 456.309 379.524 450.747 380.309L449.193 380.518C430.903 382.864 413.02 380.999 396.532 375.667C369.632 366.969 328.684 375.434 300.69 379.385L299.952 379.485C268.997 383.455 240.496 362.004 235.742 331.159L235.634 330.423C233.956 318.536 227.955 306.693 222.737 295.881C221.396 293.102 220.423 290.09 219.89 286.902L219.76 286.052C219.545 284.529 217.695 283.698 216.449 284.601C209.093 289.932 200.364 293.596 190.742 294.954L190.005 295.053C185.258 295.662 180.569 295.673 176.015 295.144C166.755 294.068 156.769 298.723 152.403 306.96C146.949 317.25 150.996 333.485 156.57 343.711C158.429 347.123 159.719 350.92 160.294 354.994L160.404 355.847C162.467 373.731 149.899 390.098 131.97 392.629L131.116 392.739C113.516 394.77 97.3847 382.629 94.4646 365.154L94.3338 364.305C93.7468 360.146 93.9551 356.059 94.8426 352.196C95.2132 350.583 93.8433 348.996 92.2045 349.227L91.1689 349.366C47.3324 354.989 6.99925 324.327 0.804052 280.437C-5.4394 236.202 25.3583 195.281 69.5931 189.037C75.7215 188.172 81.7863 188.018 87.7041 188.512C114.188 190.724 148.333 184.651 174.648 180.936L175.386 180.837C206.587 176.835 235.295 198.659 239.704 229.898L239.804 230.635C240.275 234.307 240.388 237.944 240.17 241.511C239.928 245.469 244.159 248.97 248.085 248.416L248.937 248.307C262.016 246.797 274.283 253.114 280.921 263.63C281.705 264.872 283.141 265.573 284.596 265.367L285.333 265.268C290.198 264.644 295.002 264.648 299.663 265.218C305.932 265.984 312.282 261.174 312.551 254.864C312.742 250.388 309.742 246.449 305.566 244.827C290.37 238.924 278.684 225.292 276.033 208.085L275.944 207.483C272.308 181.723 290.244 157.891 316.004 154.255L316.607 154.174C340.571 151.1 369.633 154.329 392.35 146.102C400.128 143.285 408.313 141.226 416.83 140.024L418.383 139.814C468.498 133.387 515.559 158.574 539.225 200.065C542.044 205.007 548.174 207.066 553.441 204.916C560.099 202.197 563.56 193.339 562.261 186.266C562.228 186.087 562.197 185.909 562.167 185.729L562.036 184.88C559.465 166.665 572.147 149.815 590.362 147.244L591.214 147.134C598.31 146.316 605.647 140.784 606.543 133.697C610.773 100.266 636.876 72.4422 671.849 67.5055C713.742 61.5921 752.497 90.7597 758.411 132.653L758.543 133.634C760.171 146.326 758.586 158.707 754.415 169.95C753.708 171.854 755.457 173.916 757.467 173.632L758.49 173.501C766.932 172.526 775.52 170.268 782.788 165.864C789.254 161.945 796.604 159.244 804.565 158.12L805.303 158.021C812.713 157.07 819.138 150.928 819.22 143.457C819.967 75.51 870.218 16.4397 939.567 6.6509L941.358 6.40986ZM417.529 144.975C404.2 146.856 391.72 150.926 380.4 156.77C367.721 163.317 367.236 180.186 369.231 194.315L369.312 194.918C372.586 220.446 354.731 243.934 329.172 247.542L328.568 247.623C322.796 248.364 317.541 252.462 317.454 258.281C317.433 259.639 317.437 261.001 317.464 262.367C317.568 267.516 320.833 271.911 325.086 274.814C337.996 283.626 347.295 297.632 349.652 314.329L349.751 315.067C351.631 329.723 353.66 345.784 365.633 354.442C389.155 371.452 419.035 379.736 450.048 375.358C463.298 373.488 475.709 369.454 486.975 363.664C511.435 351.094 507.831 318.333 503.988 291.102C496.625 238.938 523.922 169.731 474.605 151.206C456.978 144.584 437.488 142.158 417.529 144.975ZM580.797 210.347C575.081 207.643 568.652 205.221 562.586 207.005C552.574 209.949 549.21 221.264 551.672 231.404C552.608 235.26 553.364 239.197 553.93 243.208L554.14 244.762C555.177 252.853 555.391 260.864 554.845 268.709C552.053 308.826 554.871 360.562 594.689 354.941C636.19 349.083 665.085 310.691 659.227 269.19C655.896 245.594 642.049 226.075 623.093 214.7C616.181 210.552 607.654 212.077 599.672 213.204L598.819 213.314C592.431 214.051 586.236 212.921 580.797 210.347ZM940.265 11.6018C892.432 18.3537 854.021 49.421 835.764 90.5432C818.822 128.702 863.786 165.741 869.621 207.082L869.721 207.819C872.306 227.974 873.499 251.352 891.034 261.62C916.352 276.446 946.664 283.154 977.972 278.735C1017.63 273.137 1050.82 250.821 1071.4 219.919C1077.39 210.937 1074.68 199.246 1072.9 188.601L1072.77 187.752C1071.84 181.151 1072.91 174.73 1075.52 169.102C1082.1 154.924 1094.87 141.792 1092.69 126.315C1091.27 116.31 1088.8 106.719 1085.39 97.6373C1084.32 94.7916 1081.25 93.3303 1078.24 93.7552L1077.64 93.8365C1052.31 97.0849 1028.99 79.5346 1025.1 54.298L1025.01 53.6961C1023.01 39.5033 1019.04 23.4549 1005.58 18.5064C985.372 11.0712 963.083 8.38105 940.265 11.6018ZM285.295 270.318C284.728 270.398 284.384 270.977 284.553 271.523C285.072 273.203 285.466 274.945 285.72 276.742L285.829 277.594C287.893 295.479 275.325 311.845 257.395 314.377L256.542 314.486C248.335 315.433 239.467 320.117 240.406 328.325C240.459 328.791 240.519 329.257 240.585 329.724C244.643 358.475 271.24 378.493 299.991 374.434C335.133 369.474 324.498 323.804 316.005 289.344C315.145 285.853 314.432 282.296 313.874 278.676L313.645 277.126C313.373 275.195 312.145 273.505 310.31 272.848C302.55 270.073 294.021 269.086 285.295 270.318ZM1273.67 147.144C1273.1 147.225 1272.67 147.716 1272.65 148.294C1272.2 160.302 1268.82 171.734 1263.12 181.777C1252.8 199.971 1243.92 224.685 1263.33 232.488C1270.32 235.298 1278.11 236.368 1286.1 235.24C1310.43 231.806 1327.37 209.302 1323.93 184.975C1323.85 184.363 1323.52 183.812 1323.05 183.412C1318.18 179.298 1313.81 174.592 1310.04 169.386C1302.42 158.866 1294.09 147.058 1281.1 146.717C1278.66 146.653 1276.17 146.79 1273.67 147.144ZM147.149 339.453C139.375 331.829 127.519 336.151 117.831 341.121C108.343 345.988 97.7944 353.048 99.2847 363.606C101.47 379.086 115.791 389.863 131.271 387.678C146.75 385.493 157.528 371.173 155.343 355.693C154.437 349.275 151.445 343.666 147.149 339.453ZM548.979 243.907C546.956 229.569 530.102 224.531 521.82 236.41C511.24 251.584 506.149 270.641 508.939 290.403C512.102 312.814 540.202 312.374 546.119 290.528C550.114 275.779 551.25 259.996 548.979 243.907ZM1363.73 49.8579C1323.27 55.5694 1295.1 92.9981 1300.81 133.458C1302.19 143.214 1309.68 150.484 1316.35 157.738C1317.65 159.147 1318.86 160.634 1319.99 162.192C1327.95 173.182 1333.92 186.724 1346.51 191.791C1358.14 196.47 1371.11 198.255 1384.41 196.377C1424.87 190.666 1453.04 153.236 1447.33 112.776C1441.62 72.3162 1404.19 44.1468 1363.73 49.8579ZM1189.33 77.3573C1151.74 82.6643 1125.56 117.446 1130.87 155.044C1131.65 160.569 1134.58 165.487 1136.66 170.666C1137.64 173.112 1138.34 175.714 1138.73 178.441C1138.75 178.625 1138.81 178.804 1138.9 178.966C1152.35 203.032 1179.62 217.596 1208.55 213.511C1214.82 212.626 1220.78 210.921 1226.32 208.519C1230.01 206.918 1231.59 202.724 1230.98 198.742L1230.89 198.109C1227.68 175.399 1240.43 154.117 1260.61 145.602C1264.62 143.913 1267.63 140.128 1267.02 135.825C1261.71 98.2274 1226.93 72.0506 1189.33 77.3573ZM805.264 163.071C791.186 165.058 793.652 183.802 799.494 196.764C801.014 200.136 802.087 203.776 802.63 207.622L802.762 208.645C802.986 210.592 803.067 212.524 803.011 214.429C802.341 237.217 797.387 270.373 819.961 267.187C847.648 263.279 843.111 228.277 831.608 202.791C826.509 191.496 822.842 179.337 820.866 166.509L820.601 164.721C820.468 163.774 819.733 163.017 818.783 162.905C814.387 162.389 809.853 162.423 805.264 163.071ZM340.021 299.555C334.403 287.885 322.112 295.308 327.336 307.159C329.033 311.009 330.929 314.739 333.01 318.34C336.919 325.107 345.793 322.766 344.701 315.028C343.922 309.513 342.314 304.319 340.021 299.555ZM1258.83 179.206C1266.66 165.352 1250.86 153.926 1242.33 167.356C1236.85 175.973 1234.3 186.508 1235.84 197.41C1236.21 200.068 1239.24 201.217 1241.35 199.56C1248.47 193.975 1254.4 187.042 1258.83 179.206ZM1101.79 155.066C1099.89 155.335 1098.55 156.986 1098.36 158.9C1097.65 166.157 1096.38 173.281 1094.58 180.219C1090.85 194.609 1094.31 212.957 1109.07 211.208C1109.28 211.182 1109.49 211.155 1109.71 211.125C1122.11 209.374 1131.49 199.834 1133.61 188.149C1134.54 183.007 1132.54 177.998 1130.58 173.154C1128.61 168.283 1126.52 163.159 1122.25 160.096C1116.54 155.998 1109.3 154.006 1101.79 155.066ZM1314.13 166.509C1312.66 164.478 1314.42 163.027 1315.89 165.057C1317.37 167.086 1315.6 168.54 1314.13 166.509ZM857.71 188.079C847.627 171.288 828.942 185.682 837.384 203.355C838.965 206.665 840.675 209.894 842.507 213.038C849.72 225.42 866.673 221.97 864.67 207.781C863.655 200.587 861.228 193.939 857.71 188.079ZM70.2919 193.988C28.7914 199.846 -0.10252 238.238 5.75497 279.738C11.613 321.239 50.0049 350.134 91.5057 344.276C95.9986 343.642 99.6249 340.59 102.677 337.232C107.72 331.685 114.656 327.799 122.659 326.669L123.512 326.559C128.011 326.04 132.597 324.878 135.727 321.604C137.89 319.34 139.911 316.947 141.779 314.438C152.131 300.528 142.513 282.684 133.495 267.874C129.663 261.581 126.985 254.449 125.795 246.728L125.686 245.992C122.827 225.738 120.637 201.311 100.909 195.909C91.2293 193.258 80.8615 192.496 70.2919 193.988ZM758.166 178.583C752.193 179.426 747.76 184.019 744.176 188.872C742.75 190.803 741.233 192.668 739.632 194.459C733.515 201.298 727.146 209.01 728.428 218.096C729.709 227.168 734.363 234.932 740.944 240.3C749.898 247.603 757.472 235.332 755.712 223.912L755.603 223.176C753.76 210.121 756.45 197.472 762.475 186.819C764.635 183.002 762.509 177.97 758.166 178.583ZM797.679 208.321C794.334 184.62 759.714 191.838 760.036 215.771C760.066 217.987 760.236 220.225 760.554 222.477C762.871 238.89 783.738 245.905 792.606 231.902C796.891 225.137 798.886 216.872 797.679 208.321ZM123.358 331.62C120.071 332.084 116.996 333.095 114.213 334.548C111.883 335.764 113.186 337.882 115.524 336.683C118.288 335.267 120.946 333.688 123.488 331.962C123.657 331.847 123.56 331.591 123.358 331.62ZM1089.74 178.953C1092.14 169.7 1082.53 164.296 1079.2 173.255C1077.62 177.52 1077.04 182.23 1077.72 187.053C1078.55 192.916 1085.59 192.509 1087.43 186.879C1088.28 184.268 1089.05 181.625 1089.74 178.953ZM280.769 277.44C280.284 274.004 276.693 272.15 273.461 273.413C262.891 277.544 254.141 284.935 248.253 294.204C243.742 301.303 248.368 310.601 256.697 309.426C272.177 307.24 282.954 292.92 280.769 277.44ZM248.784 253.367C248.18 253.452 247.584 253.556 246.995 253.677C239.756 255.171 235.525 262.004 231.627 268.283C231.051 269.212 230.448 270.124 229.82 271.019C226.794 275.328 223.975 280.139 224.71 285.353C226.442 297.622 241.394 293.371 249.625 284.109C250.534 283.086 251.48 282.095 252.461 281.138C262.823 271.026 267.79 253.368 253.314 253.091C251.822 253.062 250.309 253.152 248.784 253.367ZM175.347 185.887C147.907 189.76 154.093 224.872 159.948 251.958C160.365 253.886 160.714 255.842 160.994 257.826L161.134 258.862C163.13 274.426 170.451 291.445 186.108 290.411C187.414 290.324 188.727 290.189 190.044 290.003C197.641 288.931 204.629 286.284 210.723 282.439C217.345 278.262 220.323 270.442 224.463 263.797C228.599 257.158 234.218 251.077 235.008 243.295C235.429 239.156 235.361 234.901 234.754 230.597C230.695 201.846 204.098 181.829 175.347 185.887ZM672.547 72.4564C644.618 76.399 622.739 95.9582 614.494 121.06C608.509 139.282 625.316 156.578 627.997 175.569L628.106 176.422C629.005 184.209 629.986 192.612 635.938 197.713C651.014 210.634 671.358 217.258 692.564 214.265C699.037 213.351 705.185 211.598 710.913 209.131C720.602 204.96 725.927 195.039 732.826 187.06C739.73 179.075 748.891 172.348 751.668 162.164C754.152 153.053 754.864 143.297 753.46 133.352C747.932 94.1928 711.706 66.929 672.547 72.4564ZM151.373 240.933C145.963 227.383 128.598 230.846 130.637 245.293C131.707 252.87 134.342 259.841 138.17 265.924C144.492 275.97 157.702 270.277 156.043 258.524C155.173 252.358 153.584 246.47 151.373 240.933ZM592.375 204.345C588.392 203.91 587.556 207.832 591.533 208.323C593.95 208.621 596.446 208.61 598.973 208.253C600.863 207.987 600.822 205.732 598.95 205.359C596.786 204.926 594.592 204.587 592.375 204.345ZM591.06 152.195C575.58 154.38 564.802 168.701 566.987 184.181C568.501 194.906 580.708 198.248 591.495 199.231C595.385 199.585 599.21 200.22 602.946 201.117C608.134 202.362 613.957 201.924 617.256 197.732C620.754 193.289 619.451 187.188 616.574 182.32C614.282 178.441 612.317 174.33 610.721 170.017C607.242 160.615 600.987 150.794 591.06 152.195ZM364.28 195.014C362.547 182.736 347.362 181.317 340.022 191.31C330.893 203.739 324.216 217.976 320.581 233.239C319.352 238.4 323.22 243.332 328.473 242.591C351.499 239.341 367.53 218.04 364.28 195.014ZM316.703 159.206C293.677 162.456 277.645 183.758 280.895 206.784C281.375 210.188 282.25 213.438 283.467 216.496C291.74 237.294 316.168 222.82 326.715 203.078C327.179 202.21 327.653 201.348 328.137 200.493C338.361 182.422 337.262 156.304 316.703 159.206ZM620.908 168.766C618.987 164.42 614.711 166.794 616.553 171.173C617.433 173.264 618.407 175.301 619.47 177.278C620.624 179.423 623.386 178.68 623.046 176.268C622.671 173.615 621.94 171.101 620.908 168.766ZM1049.4 44.9464C1041.17 37.5395 1028.42 42.0335 1029.97 52.9973C1033.22 76.023 1054.52 92.0545 1077.54 88.8043C1079.53 88.5234 1080.57 86.3703 1079.67 84.5748C1072.06 69.4329 1061.73 56.0418 1049.4 44.9464ZM1065.77 5.41899C1043.61 8.54692 1049.61 36.1698 1064.37 52.9918C1079.22 69.9187 1106.2 80.0749 1112.24 58.3804C1113.75 52.9625 1114.19 47.1521 1113.35 41.2271C1110.1 18.2012 1088.8 2.16924 1065.77 5.41899Z" fill="url(#paint0_linear_274_187)"/>
<defs>
<linearGradient id="paint0_linear_274_187" x1="2.3338" y1="291.274" x2="1448.76" y2="87.1066" gradientUnits="userSpaceOnUse">
<stop stop-color="#0A0A0A"/>
<stop offset="0.485577" stop-color="white"/>
<stop offset="1" stop-color="#0A0A0A"/>
</linearGradient>
</defs>
</svg>
