<svg width="34" height="34" viewBox="0 0 34 34" fill="none" xmlns="http://www.w3.org/2000/svg">
<path d="M17 13.2222C17 14.2242 17.398 15.185 18.1065 15.8935C18.815 16.602 19.7758 17 20.7778 17C21.7797 17 22.7406 16.602 23.4491 15.8935C24.1575 15.185 24.5556 14.2242 24.5556 13.2222C24.5556 12.2203 24.1575 11.2594 23.4491 10.5509C22.7406 9.84246 21.7797 9.44444 20.7778 9.44444C19.7758 9.44444 18.815 9.84246 18.1065 10.5509C17.398 11.2594 17 12.2203 17 13.2222Z" fill="white"/>
<path d="M34 17C34 19.2325 33.5603 21.4431 32.706 23.5056C31.8516 25.5682 30.5994 27.4422 29.0208 29.0208C27.4422 30.5994 25.5682 31.8516 23.5056 32.706C21.4431 33.5603 19.2325 34 17 34C14.7675 34 12.5569 33.5603 10.4944 32.706C8.43185 31.8516 6.55778 30.5994 4.97918 29.0208C3.40059 27.4422 2.14838 25.5682 1.29405 23.5056C0.439718 21.4431 -3.32664e-08 19.2325 0 17C6.71846e-08 12.4913 1.79107 8.1673 4.97918 4.97918C8.1673 1.79107 12.4913 0 17 0C21.5087 0 25.8327 1.79107 29.0208 4.97918C32.2089 8.1673 34 12.4913 34 17Z" fill="white"/>
<path d="M17.9444 16.0556L10.3889 23.6111L13.2222 26.4444" fill="white"/>
<path d="M17 22.6667L14.1667 19.8333L17 22.6667Z" fill="white"/>
<path d="M7 17.58C7.38235 20.5614 9.21294 23.2096 11.7059 24.645M25.8235 15.2249C25.5358 13.1528 24.5754 11.2328 23.0902 9.76072C21.605 8.28865 19.6774 7.34616 17.6043 7.07843C15.5313 6.81071 13.4278 7.2326 11.6179 8.27912C9.80798 9.32565 8.39206 10.9387 7.58824 12.8699M7 8.15997V12.87H11.7059M16.4118 19.935H18.7647C19.0767 19.935 19.376 20.059 19.5966 20.2799C19.8172 20.5007 19.9412 20.8002 19.9412 21.1125V22.29C19.9412 22.6023 19.8172 22.9018 19.5966 23.1226C19.376 23.3434 19.0767 23.4675 18.7647 23.4675H17.5882C17.2762 23.4675 16.977 23.5916 16.7563 23.8124C16.5357 24.0332 16.4118 24.3327 16.4118 24.645V25.8225C16.4118 26.1348 16.5357 26.4343 16.7563 26.6551C16.977 26.8759 17.2762 27 17.5882 27H19.9412M23.4706 19.935V22.29C23.4706 22.6023 23.5945 22.9018 23.8152 23.1226C24.0358 23.3434 24.335 23.4675 24.6471 23.4675H25.8235M27 19.935V27" stroke="black" stroke-width="2" stroke-linecap="round" stroke-linejoin="round"/>
</svg>
