<svg width="34" height="34" viewBox="0 0 34 34" fill="none" xmlns="http://www.w3.org/2000/svg">
<path d="M17 13.2222C17 14.2242 17.398 15.185 18.1065 15.8935C18.815 16.602 19.7758 17 20.7778 17C21.7797 17 22.7406 16.602 23.4491 15.8935C24.1575 15.185 24.5556 14.2242 24.5556 13.2222C24.5556 12.2203 24.1575 11.2594 23.4491 10.5509C22.7406 9.84246 21.7797 9.44444 20.7778 9.44444C19.7758 9.44444 18.815 9.84246 18.1065 10.5509C17.398 11.2594 17 12.2203 17 13.2222Z" fill="white"/>
<path d="M34 17C34 19.2325 33.5603 21.4431 32.706 23.5056C31.8516 25.5682 30.5994 27.4422 29.0208 29.0208C27.4422 30.5994 25.5682 31.8516 23.5056 32.706C21.4431 33.5603 19.2325 34 17 34C14.7675 34 12.5569 33.5603 10.4944 32.706C8.43185 31.8516 6.55778 30.5994 4.97918 29.0208C3.40059 27.4422 2.14838 25.5682 1.29405 23.5056C0.439718 21.4431 -3.32664e-08 19.2325 0 17C6.71846e-08 12.4913 1.79107 8.1673 4.97918 4.97918C8.1673 1.79107 12.4913 0 17 0C21.5087 0 25.8327 1.79107 29.0208 4.97918C32.2089 8.1673 34 12.4913 34 17Z" fill="white"/>
<path d="M17.9444 16.0556L10.3889 23.6111L13.2222 26.4444" fill="white"/>
<path d="M17 22.6667L14.1667 19.8333L17 22.6667Z" fill="white"/>
<path d="M10 20.4706V22.2353C10 22.7033 10.1844 23.1522 10.5126 23.4831C10.8408 23.8141 11.2859 24 11.75 24H22.25C22.7141 24 23.1592 23.8141 23.4874 23.4831C23.8156 23.1522 24 22.7033 24 22.2353V20.4706M12.625 15.1765L17 19.5882M17 19.5882L21.375 15.1765M17 19.5882V9" stroke="black" stroke-width="2" stroke-linecap="round" stroke-linejoin="round"/>
</svg>
