<svg width="32" height="32" viewBox="0 0 32 32" fill="none" xmlns="http://www.w3.org/2000/svg">
<path d="M16 12.4444C16 13.3874 16.3746 14.2918 17.0414 14.9586C17.7082 15.6254 18.6126 16 19.5556 16C20.4985 16 21.4029 15.6254 22.0697 14.9586C22.7365 14.2918 23.1111 13.3874 23.1111 12.4444C23.1111 11.5015 22.7365 10.5971 22.0697 9.93029C21.4029 9.26349 20.4985 8.88889 19.5556 8.88889C18.6126 8.88889 17.7082 9.26349 17.0414 9.93029C16.3746 10.5971 16 11.5015 16 12.4444Z" fill="white"/>
<path d="M32 16C32 18.1012 31.5862 20.1817 30.7821 22.1229C29.978 24.0641 28.7994 25.828 27.3137 27.3137C25.828 28.7994 24.0641 29.978 22.1229 30.7821C20.1817 31.5862 18.1012 32 16 32C13.8989 32 11.8183 31.5862 9.87707 30.7821C7.93586 29.978 6.17203 28.7994 4.68629 27.3137C3.20055 25.828 2.022 24.0641 1.21793 22.1229C0.413852 20.1817 -3.13096e-08 18.1012 0 16C6.32325e-08 11.7565 1.68571 7.68687 4.68629 4.68629C7.68687 1.68571 11.7565 0 16 0C20.2435 0 24.3131 1.68571 27.3137 4.68629C30.3143 7.68687 32 11.7565 32 16Z" fill="white"/>
<path d="M16.8889 15.1111L9.77778 22.2222L12.4444 24.8889" fill="white"/>
<path d="M16 21.3333L13.3333 18.6667L16 21.3333Z" fill="white"/>
<path d="M14.8812 11.5946C14.8812 12.1613 14.8812 12.7105 15.0599 13.2248C13.1812 15.4305 8.22066 21.2584 7.7586 21.703C7.66677 21.7854 7.59331 21.8862 7.54299 21.9988C7.49268 22.1115 7.46663 22.2335 7.46655 22.3568C7.46655 22.7274 7.69322 23.0848 7.88501 23.2853C8.17271 23.5861 9.40194 24.7238 9.6286 24.5058C10.2999 23.852 10.435 23.6776 10.7096 23.4074C11.1237 23.002 10.666 22.1738 10.8099 21.8381C10.9537 21.5025 11.1063 21.4371 11.3548 21.3848C11.6032 21.3325 12.0435 21.5112 12.3878 21.5156C12.7496 21.5199 12.9458 21.3674 13.216 21.1145C13.434 20.914 13.5909 20.7266 13.5953 20.4345C13.604 20.0422 13.0373 19.5235 13.4601 19.1094C13.883 18.6953 14.4932 19.3797 14.9422 19.3274C15.3912 19.2751 15.936 18.6517 15.9927 18.3858C16.0494 18.1199 15.4827 17.4356 15.5699 17.0476C15.6004 16.9169 15.8663 16.6117 16.0668 16.5682C16.2673 16.5246 17.1566 16.8689 17.3571 16.8253C17.6012 16.773 17.8845 16.5158 18.1155 16.372C18.7912 16.6641 19.4058 16.7817 20.1948 16.7817C23.1807 16.7817 25.5999 14.4541 25.5999 11.5859C25.5999 8.71768 23.1807 6.40002 20.1948 6.40002C17.2089 6.40002 14.8812 8.7264 14.8812 11.5946ZM22.8101 10.5846C22.8101 10.8605 22.7283 11.1302 22.5751 11.3596C22.4218 11.589 22.2039 11.7677 21.9491 11.8733C21.6942 11.9789 21.4137 12.0065 21.1431 11.9527C20.8726 11.8989 20.624 11.766 20.4289 11.5709C20.2339 11.3759 20.101 11.1273 20.0472 10.8567C19.9934 10.5862 20.021 10.3057 20.1266 10.0508C20.2322 9.79595 20.4109 9.5781 20.6403 9.42483C20.8697 9.27156 21.1394 9.18975 21.4153 9.18975C21.7852 9.18975 22.14 9.33671 22.4016 9.5983C22.6632 9.85989 22.8101 10.2147 22.8101 10.5846Z" fill="black"/>
</svg>
