<svg width="47" height="48" viewBox="0 0 47 48" fill="none" xmlns="http://www.w3.org/2000/svg">
<path d="M23.5 48C10.521 48 0 37.2552 0 24C0 10.7448 10.521 0 23.5 0C36.479 0 47 10.7448 47 24C47 37.2552 36.479 48 23.5 48ZM16.1915 26.808L16.222 26.7912L18.2665 33.6792C18.5297 34.4256 18.8916 34.56 19.3311 34.4976C19.7729 34.4376 20.0055 34.1952 20.2946 33.912L23.0864 31.1568L29.0789 35.688C30.174 36.3048 30.9613 35.9856 31.2339 34.6512L35.1278 15.8784C35.5578 14.1312 34.8059 13.4304 33.4781 13.9872L10.6055 23.0112C9.04515 23.6496 9.05455 24.5424 10.3236 24.9384L16.1915 26.808Z" fill="white"/>
</svg>
